<svg xmlns="http://www.w3.org/2000/svg" width="91" height="47" viewBox="0 0 91 47">
  <metadata><?xpacket begin="﻿" id="W5M0MpCehiHzreSzNTczkc9d"?>
<x:xmpmeta xmlns:x="adobe:ns:meta/" x:xmptk="Adobe XMP Core 5.6-c138 79.159824, 2016/09/14-01:09:01        ">
   <rdf:RDF xmlns:rdf="http://www.w3.org/1999/02/22-rdf-syntax-ns#">
      <rdf:Description rdf:about=""/>
   </rdf:RDF>
</x:xmpmeta>
                                                                                                    
                                                                                                    
                                                                                                    
                                                                                                    
                                                                                                    
                                                                                                    
                                                                                                    
                                                                                                    
                                                                                                    
                                                                                                    
                                                                                                    
                                                                                                    
                                                                                                    
                                                                                                    
                                                                                                    
                                                                                                    
                                                                                                    
                                                                                                    
                                                                                                    
                                                                                                    
                           
<?xpacket end="w"?></metadata>
<defs>
    <style>
      .cls-1 {
        fill: #bd8cbf;
        stroke: #db37d5;
        stroke-width: 0.8px;
        fill-rule: evenodd;
      }
    </style>
  </defs>
  <path id="rv-camper-popup.png" class="cls-1" d="M641.687,3112.11a41.67,41.67,0,0,0,.289,7.73,3.436,3.436,0,0,0,1.156.52c0.522,0.41,1.92.26,2.889,0.26h8.09v3.35h-40.45a6.491,6.491,0,0,0-4.911-6.45h-3.756c-0.661.66-1.781,0.76-2.6,1.29v0.26c-0.192.09-.385,0.17-0.577,0.26v0.51c-0.289.18-.578,0.35-0.867,0.52v0.52a5.915,5.915,0,0,0-.867,3.09h-7.223v-0.26c-0.482-.08-0.963-0.17-1.445-0.26-0.192-.25-0.385-0.51-0.578-0.77h-0.288v-0.52h-0.289v-0.77H589.97v-9.28H579.279c-2.3,0-4.4.03-4.911-1.55-1.1-.89-0.407-1.92-0.867-3.35h-0.289v-1.55c-0.975-2.99-1.074-6.78-2.022-9.8-0.551-1.75.173-3.59,1.155-4.13,0.978-.85,2-0.15,3.467-0.52v-0.25h3.756v-0.26h4.045v-0.26q3.322-.12,6.646-0.26a1.959,1.959,0,0,1,.577-0.51v-1.03a1.693,1.693,0,0,1,1.445-1.29c0.6-.47,2.394-0.26,3.467-0.26h32.36c4.119,0,9.081-.33,12.712.26a2.6,2.6,0,0,0,.578.51v0.52h0.289v1.03h0.289c0.1,0.26.193,0.52,0.289,0.77a18.964,18.964,0,0,1,4.334.52h2.889v0.26h2.889v0.25c2.066,0.54,3.721-.52,4.334,1.55H657c-0.1,1.64-.193,3.27-0.289,4.9-0.8,2.4-.941,5.6-1.733,8-0.1,1.12-.193,2.23-0.289,3.35-0.23.64-.678,1.33-0.867,2.06-0.674.35-1.349,0.69-2.023,1.04H641.687Zm-49.117-22.96h47.672v-0.26c-2.333-1.06-10.272-.51-13.868-0.51H592.859v0.26C592.53,3088.93,592.744,3088.64,592.57,3089.15Zm62.7,3.87c-0.385-.09-0.77-0.17-1.155-0.26v-0.26h-3.178v-0.25h-2.6v-0.26h-2.889v-0.26c-1.348-.09-2.7-0.17-4.045-0.26-0.289-.34-0.578-0.69-0.867-1.03H591.992c-0.289.34-.578,0.69-0.867,1.03h-1.444v0.26h-4.334v0.26H581.3c-2.272.57-5.7,0.39-8.09,0.77a3.608,3.608,0,0,0-.578,2.32c0.707,0.74.218,2,.578,3.1H573.5v1.8h0.289v1.55h0.289v1.55h0.289v1.8a15.993,15.993,0,0,1,.867,4.65c0.385,0.25.77,0.51,1.155,0.77v0.26H651.8c0.589-.88,1.117-0.8,1.156-2.32,0.662-.69.237-2.32,0.578-3.36h0.289v-1.54h0.289v-1.81H654.4v-1.55A15.6,15.6,0,0,0,655.266,3093.02Zm-52.584-.52h22.825v0.26c0.482,0.09.963,0.17,1.445,0.26,1.226,2.41.867,6.77,0.867,10.32a13.626,13.626,0,0,1-.578,5.16,3.208,3.208,0,0,0-.578.51h-0.578v0.26H607.3c-2.523,0-5.388.4-6.356-1.03-0.833-.74-0.578-2.67-0.578-4.13v-9.54h0.289q0.144-.645.289-1.29c0.289-.09.578-0.17,0.867-0.26v-0.26h0.866v-0.26Zm-9.245.52a5.709,5.709,0,0,1,2.311.52,3.135,3.135,0,0,0,.578.51v0.52h0.289v3.61c0,3.11.266,6.85-.289,9.54a3.436,3.436,0,0,1-1.156.52c-0.727.57-3.354,0.26-4.622,0.26-4.474,0-9.894.4-13.869-.26a2.81,2.81,0,0,0-.578-0.52v-0.51h-0.289v-1.29h-0.289v-1.55h-0.288v-1.55h-0.289v-1.8h-0.289v-1.55c-0.622-1.89-1.072-3.4-.289-5.16,0.289-.09.578-0.17,0.867-0.26v-0.26l12.134-.51C588.746,3093.26,592.741,3093.57,593.437,3093.02Zm40.16,0c1.509,0.04,3.059.26,4.912,0.26h3.756v0.26h7.512v0.25c1.88,0.48,3.009-.61,4.045.78h0.289a6.53,6.53,0,0,1,0,3.35c-0.674,3.27-1.349,6.53-2.023,9.8a2.777,2.777,0,0,0-.578.52h-0.577v0.26h-5.779c-4.117,0-9.084.33-12.713-.26a3,3,0,0,1-.577-1.03c-0.527-.53-0.289-2.15-0.289-3.1v-9.54h0.289v-0.52l0.866-.51v-0.26H633.6v-0.26Zm-31.2,1.03c-0.459,1.12-.289,3.12-0.289,4.64v8.77c1.716,0.79,4.924.52,7.512,0.52h15.891c0.73-1.26.578-2.94,0.578-4.9v-8.77H625.8v-0.26h-23.4Zm-26.87,1.29q0.867,5.67,1.734,11.35c1.46,0.67,3.526.52,5.778,0.52H594.3c0.33-.3,0-0.11.578-0.26a39.005,39.005,0,0,0,0-12.12c-1.453-.49-4.136-0.28-6.067-0.26-0.67.52-2.868,0.26-4.045,0.26A64.1,64.1,0,0,0,575.523,3095.34Zm57.785,11.61c4.834,0.77,11.66.26,17.047,0.26a3.08,3.08,0,0,0,.578-2.07c0.661-.68.237-2.32,0.577-3.35a21.9,21.9,0,0,0,1.156-6.45,0.631,0.631,0,0,1-.578-0.26h-5.2c-1.715-.43-4.471-0.17-6.646-0.25h-0.866v-0.26H633.6c-0.1.26-.192,0.51-0.289,0.77-0.526.53-.288,2.14-0.289,3.1C633.019,3101.22,632.8,3104.58,633.308,3106.95Zm-41.894,5.16v8.51H591.7q0.144,0.645.289,1.29c1.57,0.62,4.257.53,6.645,0.51a7.877,7.877,0,0,1,4.912-5.93c5.3-2.05,11.408,1.65,11.557,5.93h37.56v-0.51h-7.512c-0.969,0-2.367.15-2.889-.26-1.156-.26-1.266-0.98-2.023-1.55v-7.99H591.414Zm13.58,5.93c2.672-.04,4.572.08,6.067,1.03,0.578,0.69,1.156,1.38,1.734,2.06,0.111,1.37.742,3.68-.289,4.65a4.9,4.9,0,0,1-1.445,2.06h-0.578q-0.144.255-.289,0.51a11.557,11.557,0,0,1-5.2.52v-0.26c-0.482-.08-0.963-0.17-1.445-0.26-0.481-.51-0.963-1.03-1.445-1.54-0.192-.09-0.385-0.17-0.577-0.26-0.334-.43,0-0.59-0.578-1.03-0.13-1.89-.511-3.71.578-5.16,0.385-.26.77-0.52,1.155-0.77l0.578-.78h0.578l0.289-.51h0.867v-0.26Zm0.866,1.29v0.26c-0.481.08-.963,0.17-1.444,0.25v0.26c-0.482.35-.963,0.69-1.445,1.03-0.334.43,0,.59-0.578,1.03v2.58c0.981,0.79,1.023,1.96,2.6,2.33,0.627,0.57,1.871.54,3.178,0.51,0.532-.55,1.371-0.57,2.022-1.03,0.333-.23.672-1.19,1.156-1.55,0.1-1.14.549-2.32-.289-3.09-0.477-1.73-1.863-1.54-2.889-2.58H605.86Zm3.468,6.19c-0.289.08-.578,0.17-0.867,0.26v0.25h-0.867v0.26c-2.082.56-2.9-1.17-3.756-1.8-0.09-2.71.961-3.82,3.756-3.87v0.26h0.867c0.481,0.51.963,1.03,1.444,1.54A8.6,8.6,0,0,1,609.328,3125.52Zm-3.179-3.36a3.539,3.539,0,0,1-.866,1.04c0.165,0.51-.035.22,0.289,0.51,0.251,0.98.667,1.05,2.022,1.03,0.458-.7.792-0.63,0.867-1.8A3.4,3.4,0,0,0,606.149,3122.16Z" transform="translate(-568.5 -3084.5)"/>
</svg>
