<svg xmlns="http://www.w3.org/2000/svg" width="110.031" height="60" viewBox="0 0 110.031 60">
  <metadata><?xpacket begin="﻿" id="W5M0MpCehiHzreSzNTczkc9d"?>
<x:xmpmeta xmlns:x="adobe:ns:meta/" x:xmptk="Adobe XMP Core 5.6-c138 79.159824, 2016/09/14-01:09:01        ">
   <rdf:RDF xmlns:rdf="http://www.w3.org/1999/02/22-rdf-syntax-ns#">
      <rdf:Description rdf:about=""/>
   </rdf:RDF>
</x:xmpmeta>
                                                                                                    
                                                                                                    
                                                                                                    
                                                                                                    
                                                                                                    
                                                                                                    
                                                                                                    
                                                                                                    
                                                                                                    
                                                                                                    
                                                                                                    
                                                                                                    
                                                                                                    
                                                                                                    
                                                                                                    
                                                                                                    
                                                                                                    
                                                                                                    
                                                                                                    
                                                                                                    
                           
<?xpacket end="w"?></metadata>
<defs>
    <style>
      .cls-1 {
        fill: #bd8cbf;
        stroke: #db37d5;
        stroke-width: 1.2px;
        fill-rule: evenodd;
      }
    </style>
  </defs>
  <path id="rv-class-a.png" class="cls-1" d="M126.622,2920H139.1c0.595,1.24,1.189,2.49,1.783,3.74h64.547v0.41h1.07v0.42h0.713l2.5,2.49c0.859,1.56.208,4.58,0.714,6.64h0.356v2.9h0.357v2.91H211.5v3.32h0.356v2.91h0.357v3.73c0.959,3.97,1.027,11.38.356,15.77a3.937,3.937,0,0,1-1.426.84c-0.768.8-5.549,0.45-7.132,0.41l-0.714-4.98c-1.059-.85-0.164-0.39-0.713-1.25-0.594-.55-1.189-1.1-1.783-1.66-0.119-.27-0.238-0.55-0.356-0.83-0.476-.14-0.951-0.27-1.427-0.41v-0.42H198.3v-0.41h-4.636v0.41c-0.713.28-1.427,0.56-2.14,0.83l-2.139,2.91h-0.357v0.83c-0.761.86-1.076,3.11-1.07,4.98h-41.01c-0.253-4.52-2.142-8.12-4.993-9.55h-1.07c-5.7-2.36-10.088,3.43-9.985,9.55a33.754,33.754,0,0,1-11.768-1.66l-4.279-.42c-1.714-.59-4.327-1.23-6.063-1.66-1.164-2.64-.713-8.09-0.713-12.03v-25.74c0.406-.47.142,0,0.357-0.83,5.035-1.05,11.825-.42,17.474-0.41C126.146,2922.49,126.384,2921.24,126.622,2920Zm1.426,1.66-0.356,3.74H110.218c-1.092,2.47-.714,7.45-0.714,11.2v24.08c0.357,0.14.714,0.28,1.07,0.41,0.972,1,2.432.32,3.923,0.83v0.42h2.5a39.062,39.062,0,0,0,12.125,2.07c0.166-.55.184,0.14,0.357-0.41v-2.08h0.356v-0.83h0.357v-0.83c0.713-1.1,1.426-2.21,2.14-3.32h0.713c0.238-.41.475-0.83,0.713-1.24h0.713v-0.42c6.6-3.47,13.722,2.27,13.908,9.13h38.158a12.356,12.356,0,0,1,1.069-4.98c0.357-.27.714-0.55,1.07-0.83v-0.83c0.915-1.43,6.43-4.55,9.629-3.32,3.282,1.27,7.12,4.89,7.132,9.96h5.349a0.664,0.664,0,0,1,.357-0.41l0.357-4.98h-0.357v-5.4h-0.357v-4.56h-0.356c-0.119-2.08-.238-4.15-0.357-6.23-0.546-1.01-2.227.14-3.209-.42-0.357-.55-0.714-1.1-1.07-1.66h-0.357v-10.79c0.448-.41.691-1.32,1.07-1.66,0.693-.62.376,0.43,1.07-0.83a24.834,24.834,0,0,0-2.14-1.66q-3.208-.21-6.419-0.41h-59.2a12.1,12.1,0,0,1-1.426-3.32C135.531,2921.48,131.468,2921.65,128.048,2921.66ZM124.126,2942c-0.476.14-.952,0.28-1.427,0.41v0.42H119.49c-2.962,0-7.611.62-8.559-1.66v-11.62c0.406-.48.142,0,0.356-0.83l1.07-.42c0.587-.64,2.086-0.41,3.21-0.41,2.776-.01,7.428-0.78,8.559,1.24h0.356v1.25h0.357v9.96h-0.357C124.363,2940.89,124.244,2941.45,124.126,2942Zm42.793-14.11H181.9a9.047,9.047,0,0,0,1.426,2.07c0.07,3.49.788,10.62-1.07,12.04-0.847,1-2.559.83-4.279,0.83-3.894,0-8.975.51-11.768-.83-0.848-2.16-.721-5.81-0.713-9.13v-3.32h0.356C166.206,2928.99,166.562,2928.44,166.919,2927.89Zm35.661,19.09-1.426.42v0.41H187.246v-0.41l-1.427-.42q-0.177-1.035-.356-2.07h-0.357v-4.57c0-3.88.217-7.92,0.357-11.21a4.771,4.771,0,0,0,1.426-1.24h11.768c2.138,0,2.971-.21,3.923,1.24h0.357v17.02C202.531,2946.62,202.8,2946.15,202.58,2946.98Zm-89.866-17.02v10.38c2.328,1,6.666.44,9.628,0.41,1.03-2.29.741-6.43,0.714-9.96-0.406-.47-0.142,0-0.357-0.83h-9.985Zm68.469,10.38a71.335,71.335,0,0,0,.357-9.55c-2.891-1.74-9.427-.86-13.551-0.83-1.03,2.3-.741,6.44-0.713,9.96C169.957,2941.07,177.585,2940.36,181.183,2940.34Zm6.419-10.38c-1.029,3.25-.374,10.77-0.356,14.95,2.818,1.69,9.155.86,13.195,0.83,1.459-3.28.739-10.66,0.713-15.36a0.686,0.686,0,0,1-.357-0.42H187.6Zm21.754,10.38q-0.536-5.19-1.07-10.38l-1.07.42v9.54A4.889,4.889,0,0,0,209.356,2940.34Zm-64.9,19.51a3.7,3.7,0,0,0,.714,1.66h0.356c0.119,0.55.238,1.11,0.357,1.66h0.356v2.07c0.084,0.58.25-.15,0.357,0.42q-0.535,2.7-1.07,5.4c-1.246.85-1.655,2.41-3.209,2.9-0.988,1.24-5.78,1.21-6.776,0-3.009-.83-4.352-4.94-4.279-9.55h0.356l0.357-2.49c0.238-.13.476-0.27,0.713-0.41v-0.83h0.357c0.356-.55.713-1.11,1.07-1.66h0.713v-0.42c0.724-.48.8,0,1.426-0.83,1.189-.14,2.378-0.27,3.566-0.41v0.41H141.6v0.42c0.475,0.14.951,0.27,1.426,0.41v0.42A2.894,2.894,0,0,0,144.452,2959.85Zm50.639-2.49a8.578,8.578,0,0,1,7.846,4.56v1.25h0.356c0.119,1.52.238,3.04,0.357,4.57h-0.357v1.66h-0.356a5.062,5.062,0,0,1-.713,2.07h-0.357v0.83l-0.713.42v0.41h-0.713c-0.119.28-.238,0.56-0.357,0.83-0.777.55-4.823,1.44-6.419,0.83v-0.41l-1.783-.42-1.783-2.49c-0.238-.14-0.476-0.28-0.713-0.41-0.258-.47-1.3-4.89-1.07-5.82h0.356v-2.07h0.357c0.119-.55.238-1.11,0.357-1.66l0.713-.42v-0.83c0.237-.13.475-0.27,0.713-0.41v-0.42h0.713c0.119-.27.238-0.55,0.357-0.83,0.644-.48.8,0,1.426-0.83h1.783v-0.41Zm-0.356,2.07v0.42h-1.07a24.119,24.119,0,0,1-1.783,1.66,24.8,24.8,0,0,1-1.427,2.07c-0.122,1.86-.432,2.25,0,3.74v1.66h0.357c0.482,2.47,3.742,4.66,6.062,3.74H198.3v-0.42c2.64-.71,3.64-3.9,3.566-7.89-0.706-.73-0.3-0.81-0.713-1.66H200.8v-0.83h-0.356c-0.119-.27-0.238-0.55-0.357-0.83h-0.713c-0.119-.27-0.238-0.55-0.357-0.83C198.006,2959.54,196.369,2959.43,194.735,2959.43Zm-51.709,2.08c-1.129-.33-1.687-1.32-2.5-1.66h-3.21v0.41h-1.07c-0.119.28-.237,0.56-0.356,0.83H135.18c-1.239,1.03-2.919,5.67-1.426,7.48,0.631,3.19,3.223,4.25,6.776,4.15,0.551-.75,1.536-0.98,2.139-1.66q0.893-1.455,1.783-2.91v-3.74H144.1v-0.83h-0.357v-0.83h-0.356C143.264,2962.34,143.145,2961.92,143.026,2961.51Zm-5.349.41a11.071,11.071,0,0,1,3.923.83c1.274,2.94,1.83,4.22-.357,6.65-0.119.27-.238,0.55-0.357,0.83h-0.713v0.41c-2.021.86-4.589-1.42-4.993-2.49v-3.74c0.407-.47.143,0,0.357-0.83A7.847,7.847,0,0,0,137.677,2961.92Zm57.058,0a11.06,11.06,0,0,1,3.922.83,5.286,5.286,0,0,1,.714,1.66c1.08,1.32-.115,3.83-0.357,4.99-2.924,1.69-4.922,1.94-6.419-1.66h-0.357v-2.91H192.6c0.119-.55.238-1.11,0.357-1.66,0.289-.45,1.5-0.57,1.783-0.83v-0.42Zm-57.415,2.49a8.626,8.626,0,0,0,0,3.74,11.288,11.288,0,0,0,2.5.42c0.61-1.22,1.031-1.19,1.07-3.33-1.047-.7-1.021-1.19-2.853-1.24C137.627,2964.47,138.032,2964.17,137.32,2964.41Zm60.268,3.74a8.642,8.642,0,0,0,0-3.74,10.785,10.785,0,0,0-2.5-.41c-0.609,1.22-1.031,1.19-1.07,3.32,1.048,0.71,1.021,1.2,2.853,1.25C197.281,2968.09,196.876,2968.4,197.588,2968.15Z" transform="translate(-105.469 -2917.5)"/>
</svg>
