<svg xmlns="http://www.w3.org/2000/svg" width="100" height="49" viewBox="0 0 100 49">
  <metadata><?xpacket begin="﻿" id="W5M0MpCehiHzreSzNTczkc9d"?>
<x:xmpmeta xmlns:x="adobe:ns:meta/" x:xmptk="Adobe XMP Core 5.6-c138 79.159824, 2016/09/14-01:09:01        ">
   <rdf:RDF xmlns:rdf="http://www.w3.org/1999/02/22-rdf-syntax-ns#">
      <rdf:Description rdf:about=""/>
   </rdf:RDF>
</x:xmpmeta>
                                                                                                    
                                                                                                    
                                                                                                    
                                                                                                    
                                                                                                    
                                                                                                    
                                                                                                    
                                                                                                    
                                                                                                    
                                                                                                    
                                                                                                    
                                                                                                    
                                                                                                    
                                                                                                    
                                                                                                    
                                                                                                    
                                                                                                    
                                                                                                    
                                                                                                    
                                                                                                    
                           
<?xpacket end="w"?></metadata>
<defs>
    <style>
      .cls-1 {
        fill: #3d3d3d;
        stroke: #db37d5;
        stroke-width: 1.3px;
        fill-rule: evenodd;
      }
    </style>
  </defs>
  <path id="rv-camper-truck.png" class="cls-1" d="M660.907,2955.82c0.116,0.39.233,0.77,0.349,1.16h0.349v7.2c0.465,0.1.93,0.19,1.395,0.29v3.46c-2.334,1-7.354.6-10.814,0.58-0.16-.39-0.18.09-0.348-0.29v-1.44h-0.349v-0.58l-2.093-2.31h-0.7q-0.174-.285-0.349-0.57h-0.7v-0.29h-1.047a9.37,9.37,0,0,0-3.837-.29c-0.774.21-1.473,0.68-2.442,0.87l-1.395,1.44h-0.349v0.57a5.476,5.476,0,0,0-1.395,2.89H596.026c-0.054-1.49-.717-1.99-1.047-3.17-1.4-.71-2.49-2.1-4.186-2.6H588.7c-4.085,0-7.19,2.54-7.325,5.77a41.276,41.276,0,0,1-5.93-.29,6.414,6.414,0,0,0-1.4-1.44v-4.9c-1.2.03-3.2,0.19-3.837-.29-2.943-.65-2.093-4.24-2.093-7.21v-22.19c0.4-.33.139,0,0.349-0.58,0.348-.09.7-0.19,1.046-0.29,0.677-.49,2.6-0.28,3.837-0.28h56.859c1.174,0,2.852-.17,3.488.28,1.987,0.42,2.787,2.23,3.837,3.46,0.349,0.19.7,0.39,1.046,0.58v0.58c0.233,0.09.465,0.19,0.7,0.28v1.16c0.935,0.97-1.52,7.64-.7,8.64a12.91,12.91,0,0,0,2.442,2.6c0.233,0.09.465,0.19,0.7,0.29v0.57h0.348l0.7,0.87c0.581,0.38,1.163.77,1.744,1.15v0.58c0.814,0.57,1.628,1.15,2.442,1.73v0.28h1.4v0.29h2.791v0.29h2.791v0.29h2.79v0.29h2.442v0.29C659.744,2955.63,660.326,2955.73,660.907,2955.82Zm-91.043-23.34c-0.872,3.97-.349,9.36-0.349,13.83s-0.52,9.86.349,13.84a29.167,29.167,0,0,0,4.186.29,10.556,10.556,0,0,1,.7-4.9c3.039-1.35,8.641-.87,13.255-0.87h29.3a6.613,6.613,0,0,1,1.047-.86v-7.5c0.4-.33.138,0,0.348-0.57a3.608,3.608,0,0,0,.7-0.58h0.7v-0.29c1.86-.1,3.721-0.19,5.581-0.29h11.162c0.1-1.49,1.55-6.68.7-7.49a2.991,2.991,0,0,0-1.047-1.44H636.14v-0.58c-0.348-.19-0.7-0.38-1.046-0.58v-0.57c-0.814-.58-1.628-1.16-2.442-1.73Q601.262,2932.325,569.864,2932.48Zm49.882,2.88h10.116c0.232,0.29.465,0.58,0.7,0.86,1.331,1.04.579,3.78,0,4.9-2.534.95-8.441,0.77-11.511,0.29-0.116-.29-0.232-0.57-0.349-0.86-0.728-.66-0.384-3.14-0.348-4.33A4.558,4.558,0,0,0,619.746,2935.36Zm-43.6.86H588v0.29c1.175,0.45,1.334-.02,1.744,1.15,1.612,1.39.413,8.69,0,10.38-0.349.1-.7,0.19-1.047,0.29v0.29H588v0.29h-3.488c-3.357,0-9.346.76-10.116-1.45-1.612-1.38-.413-8.68,0-10.37A4.892,4.892,0,0,0,576.143,2936.22Zm44.3,0.58a8.393,8.393,0,0,0-.348,3.17c2.1,0.64,6.012.3,8.72,0.29l0.349-.87c0.707-.61.183-1.59,0-2.3C627.062,2936.44,623.152,2936.79,620.443,2936.8Zm-44.3.86c-1.134,2.13-.715,6.2-0.7,9.23,2.686,1.15,8.688.6,12.558,0.57,0.116-.28.232-0.57,0.349-0.86H588.7v-2.31a30.908,30.908,0,0,0-.348-6.34C585.688,2937.14,579.57,2937.65,576.143,2937.66Zm0,29.12c1.162,0.09,2.325.19,3.488,0.28l1.395-2.88c0.233-.09.465-0.19,0.7-0.29l1.395-1.44c1.025-.57,5.7-1.77,8.023-1.15v0.29h1.047v0.29l2.093,0.57,1.395,1.44c0.232,0.1.465,0.2,0.7,0.29l1.395,2.88h38.022a4.668,4.668,0,0,1,1.046-2.59c0.233-.1.465-0.19,0.7-0.29v-0.57h0.349l0.7-.87h0.7c0.116-.19.232-0.38,0.349-0.58h0.7v-0.28a11.308,11.308,0,0,1,4.535-.58H647.3c2.846,0.78,5.7,3.09,6.279,5.76h7.674v-1.44a1.129,1.129,0,0,1-1.047-.57h-0.348v-7.5c-0.4-.33-0.139,0-0.349-0.57-2.795-.4-6.443-0.55-9.07-1.16q-3.488.15-6.976,0.29c-6.337.01-13.946,0.29-19.185-.57-0.576-2.66-.354-6.4-0.349-9.52-1.163.1-2.326,0.2-3.489,0.29-0.81,1.81-.366,5.18-0.348,7.5h-0.349v0.86c-1.1.54-.99,1.07-2.791,1.15-0.6.43-2.025,0.29-3.139,0.29H576.492c-1.355,2.16-.724,6.96-0.7,10.09C576.191,2966.53,575.933,2966.2,576.143,2966.78Zm49.533-12.4h18.836v-0.29c-0.849-.45-0.212-0.32-0.7-0.86-0.93-.67-1.861-1.35-2.791-2.02v-0.57c-0.814-.58-1.628-1.16-2.442-1.73v-0.58h-0.349c-0.745-.73-1.753-1.27-2.093-2.31H626.025C625.118,2948.05,625.658,2951.83,625.676,2954.38Zm-38.022,8.94c1.295-.03,2.876.08,3.488,0.57a8.7,8.7,0,0,1,2.791,1.16v0.57c0.349,0.2.7,0.39,1.046,0.58,0.117,0.58.233,1.15,0.349,1.73h0.349c1,2.69-1.964,5.95-3.837,6.34a11.131,11.131,0,0,1-5.581.58v-0.29c-1.586-.59-1.706-0.39-2.791-1.44h-0.349v-0.58c-0.232-.1-0.465-0.19-0.7-0.29-0.409-.52-0.01-0.64-0.7-1.15v-3.75h0.349v-0.57h0.349c0.116-.39.232-0.77,0.348-1.16,0.466-.28.931-0.57,1.4-0.86v-0.29h0.7c0.117-.19.233-0.38,0.349-0.58h1.047v-0.28h1.395v-0.29Zm55.812,0a35.417,35.417,0,0,1,4.535.57v0.29c0.348,0.1.7,0.19,1.046,0.29,0.349,0.38.7,0.77,1.046,1.15h0.349v0.58c0.233,0.1.465,0.19,0.7,0.29,0.586,0.93.36,3.22,0.349,4.61l-1.744,2.31-2.791,1.44a30.5,30.5,0,0,1-6.279-.58c-0.581-.58-1.163-1.15-1.744-1.73h-0.349c-0.4-.48,0-0.66-0.7-1.15-0.125-1.37-.5-1.98,0-3.17v-1.16h0.348c0.515-2,2.5-2.2,3.837-3.45h1.4v-0.29ZM588,2964.76v0.29c-0.582.09-1.163,0.19-1.744,0.29v0.28h-0.7v0.29l-1.395.87c-0.4.48,0,.65-0.7,1.15v2.59c0.629,0.45.812,1.25,1.4,1.73s1.553,0.64,2.093,1.16c1.14,0.03,2.895.16,3.489-.29,0.348-.1.7-0.2,1.046-0.29v-0.29h0.7v-0.29a1.012,1.012,0,0,0,.7-0.86c2.2-1.51.446-4.45-1.046-5.48v-0.29A11.96,11.96,0,0,0,588,2964.76Zm52.672,7.49a3.412,3.412,0,0,1,1.4.58v0.29c1.4,0.09,2.791.19,4.186,0.29,0.54-.52,1.51-0.68,2.093-1.16s0.768-1.28,1.4-1.73v-2.59c-0.7-.5-0.295-0.67-0.7-1.15-0.814-.58-1.628-1.16-2.442-1.73-1.479-.09-2.85-0.5-3.837.29-2.268.41-4.314,3.15-3.139,5.47h0.349v0.58h0.348C640.443,2971.68,640.559,2971.96,640.675,2972.25ZM588,2966.2c0.814,0.1,1.628.19,2.442,0.29,1.329,1.78,2.333,2.06,1.046,4.61a3.674,3.674,0,0,0-.7.58h-0.7v0.28h-3.14c-0.348-.38-0.7-0.76-1.046-1.15h-0.349q-0.174-1.44-.349-2.88c1.047-.57.329-0.82,1.744-1.15v-0.29H588v-0.29Zm59.3,5.19h-0.7q-0.174.285-.349,0.57c-1.169.41-3.067-.16-3.837-0.28-0.745-1.13-1.343-1.34-1.395-3.17h0.349v-0.87c0.232-.1.465-0.19,0.7-0.29,0.846-.73.326-0.79,2.093-0.86,0.75-.53,1.783.09,2.791,0.29a3.825,3.825,0,0,0,.7.57v0.58H648v2.59c-0.233.1-.466,0.2-0.7,0.29v0.58Zm-57.207-3.17a13.9,13.9,0,0,0-2.442-.29,2.165,2.165,0,0,0-.7,1.73c0.4,0.33.139,0,.349,0.57a6.325,6.325,0,0,0,2.093.29,4.042,4.042,0,0,1,1.047-1.15C590.328,2968.99,590.212,2968.6,590.1,2968.22Zm53.719-.29a4.042,4.042,0,0,1-1.047,1.15,0.575,0.575,0,0,0,.349.29c0.3,1.09.806,1.17,2.442,1.15,0.573-.89.662-0.51,0.7-2.01a1.347,1.347,0,0,1-.7-0.58h-1.744Z" transform="translate(-565.5 -2928.5)"/>
</svg>
