<svg xmlns="http://www.w3.org/2000/svg" width="105" height="52" viewBox="0 0 105 52">
  <metadata><?xpacket begin="﻿" id="W5M0MpCehiHzreSzNTczkc9d"?>
<x:xmpmeta xmlns:x="adobe:ns:meta/" x:xmptk="Adobe XMP Core 5.6-c138 79.159824, 2016/09/14-01:09:01        ">
   <rdf:RDF xmlns:rdf="http://www.w3.org/1999/02/22-rdf-syntax-ns#">
      <rdf:Description rdf:about=""/>
   </rdf:RDF>
</x:xmpmeta>
                                                                                                    
                                                                                                    
                                                                                                    
                                                                                                    
                                                                                                    
                                                                                                    
                                                                                                    
                                                                                                    
                                                                                                    
                                                                                                    
                                                                                                    
                                                                                                    
                                                                                                    
                                                                                                    
                                                                                                    
                                                                                                    
                                                                                                    
                                                                                                    
                                                                                                    
                                                                                                    
                           
<?xpacket end="w"?></metadata>
<defs>
    <style>
      .cls-1 {
        fill: #bd8cbf;
        stroke: #db37d5;
        stroke-width: 1.3px;
        fill-rule: evenodd;
      }
    </style>
  </defs>
  <path id="rv-class-b.png" class="cls-1" d="M508.347,2950.06a55.755,55.755,0,0,1,7.574,1.52h1.443v0.31h0.721c0.24,0.3.481,0.61,0.721,0.91h0.361v8.85h1.082c0.84,1.35.753,2.15,0.721,4.27-1.677.74-3.846,0.63-6.492,0.61v-0.31h-0.36v-1.52h-0.361q-0.361-.915-0.721-1.83c-0.6-.41-1.2-0.82-1.8-1.22-0.12-.21-0.24-0.41-0.36-0.61-0.722-.21-1.443-0.41-2.164-0.61v-0.31h-1.443v-0.3a7.092,7.092,0,0,0-3.967.61,6.862,6.862,0,0,0-5.41,6.1h-45.8a7.782,7.782,0,0,0-2.885-5.19c-0.833-.5-1.845-0.57-2.524-1.22l-3.968-.3c-3.548.91-6.826,2.82-6.852,6.71h-7.935c-1.632-.41-3.642-0.93-5.41-1.22a6.933,6.933,0,0,0-1.443-1.53v-20.74c0-3.87-.356-8.52.361-11.89,0.361-.11.721-0.21,1.082-0.31,1.012-.74,5.722-0.17,7.574-0.3,5.592-.41,12.578-0.31,18.755-0.31h7.934c0.241-.3.481-0.61,0.721-0.91h0.722c0.12-.21.24-0.41,0.36-0.61H459.3v-0.31l1.442-.3v-0.31c1.144-.42,6-1.13,7.935-0.61a11.565,11.565,0,0,1,3.967,2.14c0.241,0.3.481,0.61,0.722,0.91h21.279c0.24,0.31.481,0.61,0.721,0.92h0.361l0.721,1.83h0.361v0.61h0.36l0.722,1.83h0.36v0.91h0.361v0.61h0.361v0.61h0.36c0.374,0.89-.55,1.66-0.36,2.14l0.721,0.3v0.61c0.24,0.1.481,0.2,0.721,0.31,0.121,0.3.241,0.61,0.361,0.91,0.481,0.31.962,0.61,1.443,0.92v0.61c0.36,0.2.721,0.4,1.082,0.61v0.61c0.36,0.2.721,0.4,1.082,0.61v0.61c0.481,0.3.961,0.61,1.442,0.91v0.61c0.241,0.1.481,0.2,0.722,0.31,0.12,0.3.24,0.61,0.36,0.91h0.361A3.3,3.3,0,0,1,508.347,2950.06ZM453.526,2965h42.919c0.588-5.53,9.754-8.62,15.509-5.18l1.8,1.83,0.721,0.3v0.61c0.241,0.1.481,0.2,0.722,0.31,0.343,0.54.134,1.84,0.721,2.13h3.607v-1.83c-1.132-.17-1.512-0.3-1.8-1.22-1.11-1.08,0-7.16-.721-8.84a42.688,42.688,0,0,1-6.492-1.22l-3.967.3h-10.82c-1.78,0-7.42.35-8.3-.3a1.838,1.838,0,0,1-1.8-2.14c-0.582-.55-0.36-2.03-0.36-3.05,0-2.65.194-5.39,0.36-7.62a4.883,4.883,0,0,0,1.443-.92h10.1c-0.266-2.57-2.586-4.03-3.246-6.4H472.281a6.769,6.769,0,0,0-3.968-3.05h-1.8v-0.31h-1.443v0.31h-1.8v0.3h-1.082v0.31c-0.721.2-1.443,0.4-2.164,0.61v0.3H459.3c-0.12.2-.241,0.41-0.361,0.61h-0.721c-0.12.2-.241,0.41-0.361,0.61h-0.721v0.31H426.476v0.3H423.23c-1.251,2.06-.721,6.41-0.721,9.46v21.35a9.363,9.363,0,0,0,1.082.91c1.443,1.21,7.272,1.24,10.459,1.22,1.262-2.81,1.934-3.62,4.689-5.18,0.12-.21.24-0.41,0.361-0.61h0.721v-0.31C445.813,2956.65,453.1,2960.53,453.526,2965Zm-25.246-26.84,1.442-.3v-0.31h2.525a60.345,60.345,0,0,1,8.295.31,4.629,4.629,0,0,0,.722.61v0.61h0.36v1.83c0.014,1.37.359,5.42-.36,6.1a1.611,1.611,0,0,1-1.082,1.22v0.3h-10.82c-0.411-.35,0-0.12-0.722-0.3a3.655,3.655,0,0,0-.721-0.61v-0.61h-0.361v-7.63h0.361C428.039,2938.97,428.16,2938.57,428.28,2938.16Zm1.082,8.85a77.878,77.878,0,0,0,10.1.3c0.12-.3.241-0.61,0.361-0.91,0.93-.86.253-6.25,0-7.32h-10.1C428.884,2940.99,429.343,2944.56,429.362,2947.01Zm58.066-7.32c-0.614,2.9-.365,6.97-0.36,10.37,1.767,0.77,4.112.61,6.852,0.61h12.624v-0.31c-0.481-.3-0.962-0.61-1.443-0.91v-0.61c-0.361-.21-0.721-0.41-1.082-0.61v-0.61c-0.361-.21-0.721-0.41-1.082-0.61v-0.61c-0.481-.31-0.962-0.61-1.443-0.92v-0.61c-0.36-.2-0.721-0.41-1.082-0.61v-0.61c-0.48-.3-0.961-0.61-1.442-0.91v-0.61c-0.361-.21-0.722-0.41-1.082-0.61v-0.61c-0.481-.31-0.962-0.61-1.443-0.92v-0.3h-9.017Zm-45.082,21.04a12.856,12.856,0,0,1,5.77.92c0.12,0.2.241,0.4,0.361,0.61H449.2c0.12,0.2.241,0.4,0.361,0.61h0.361c0.595,0.69.678,1.56,1.442,2.13q0.18,1.83.361,3.66h-0.361v1.22H451c-0.12.41-.24,0.82-0.36,1.22-0.6.41-1.2,0.82-1.8,1.22-0.121.21-.241,0.41-0.361,0.61h-0.721c-0.121.21-.241,0.41-0.361,0.61h-1.082v0.31h-5.049c-0.639-.61-0.709-0.26-1.443-0.61v-0.31H439.1c-0.241-.3-0.481-0.61-0.722-0.91-0.36-.21-0.721-0.41-1.082-0.61-1.15-1.46-1.11-3.65-1.082-6.1,0.651-.48.309-0.61,0.722-1.22h0.36v-0.61c0.6-.41,1.2-0.82,1.8-1.22,0.12-.21.24-0.41,0.36-0.61,0.6-.36.821-0.01,1.443-0.61h1.443v-0.31Zm62.034,0c5.679-.15,7.562,1.42,9.016,4.88h0.361c0.47,1.27-.138,4.1-0.721,4.58a5.863,5.863,0,0,1-1.8,2.44h-0.721c-0.12.2-.241,0.4-0.361,0.61a15.568,15.568,0,0,1-6.492.61v-0.31l-1.8-.3-1.8-1.83c-0.241-.1-0.481-0.21-0.722-0.31-0.417-.51,0-0.7-0.721-1.22-0.176-2.51-.578-4.11.721-6.1h0.361v-0.61h0.361c0.36-.41.721-0.81,1.082-1.22h0.721v-0.3h0.721v-0.31l1.8-.3v-0.31Zm0.36,1.53v0.3h-1.082a5.014,5.014,0,0,1-1.082.61v0.31h-0.721c-0.744.5-2.427,3.54-1.8,5.18h0.36q0.182,0.765.361,1.53c0.879,0.41,1.192,1.16,1.8,1.52s0.827,0,1.443.61c0.841,0.1,1.683.21,2.525,0.31v-0.31l2.524-.3c0.55-.75,1.032-0.47,1.443-0.92,0.638-.69.669-1.58,1.443-2.13a14.334,14.334,0,0,0-.722-4.58C508.863,2963.22,508.851,2962.27,504.74,2962.26Zm-56.624,1.52a3.52,3.52,0,0,1-1.442-.61v-0.3h-1.082v-0.31c-3.28-.89-6.423,1.46-7.214,2.75-0.12,1.01-.24,2.03-0.36,3.05a4.917,4.917,0,0,1,1.082,2.13c2.157,1.05,2.444,1.83,6.131,1.83v-0.3c0.6-.1,1.2-0.21,1.8-0.31,0.49-.74,1.38-1.01,1.8-1.52s-0.007-.7.721-1.22v-3.05H449.2v-0.61h-0.36v-0.61h-0.361C448.357,2964.39,448.236,2964.09,448.116,2963.78Zm-7.213,6.1v-0.61l-0.721-.3a3.157,3.157,0,0,1,.36-3.05,1.479,1.479,0,0,1,1.082-1.22c0.678-.62.186-0.01,1.082-0.31,2.566-.85,3.795.27,4.689,1.83h0.361v2.14c-0.995.76-.523,1.45-2.164,1.83v0.3c-0.722.1-1.443,0.21-2.164,0.31v-0.31h-1.443A1.471,1.471,0,0,0,440.9,2969.88Zm2.164-4.27a2.938,2.938,0,0,1-1.082.61q-0.18.765-.361,1.53h0.361c0.307,1.01.816,0.88,1.443,1.52l1.8-.3v-0.31c1.223-.81.779-2.42-0.721-2.74v-0.31h-1.443Zm64.559,0.31a10.355,10.355,0,0,1,.36,2.44c-2.112,1.07-4.036,1.51-3.967-1.83,1.059-.52,1.033-0.88,2.885-0.92C507.315,2965.96,506.906,2965.73,507.626,2965.92Z" transform="translate(-418.5 -2924.5)"/>
</svg>
