<svg xmlns="http://www.w3.org/2000/svg" width="121" height="53" viewBox="0 0 121 53">
  <metadata><?xpacket begin="﻿" id="W5M0MpCehiHzreSzNTczkc9d"?>
<x:xmpmeta xmlns:x="adobe:ns:meta/" x:xmptk="Adobe XMP Core 5.6-c138 79.159824, 2016/09/14-01:09:01        ">
   <rdf:RDF xmlns:rdf="http://www.w3.org/1999/02/22-rdf-syntax-ns#">
      <rdf:Description rdf:about=""/>
   </rdf:RDF>
</x:xmpmeta>
                                                                                                    
                                                                                                    
                                                                                                    
                                                                                                    
                                                                                                    
                                                                                                    
                                                                                                    
                                                                                                    
                                                                                                    
                                                                                                    
                                                                                                    
                                                                                                    
                                                                                                    
                                                                                                    
                                                                                                    
                                                                                                    
                                                                                                    
                                                                                                    
                                                                                                    
                                                                                                    
                           
<?xpacket end="w"?></metadata>
<defs>
    <style>
      .cls-1 {
        fill: #bd8cbf;
        stroke: #db37d5;
        stroke-width: 1.3px;
        fill-rule: evenodd;
      }
    </style>
  </defs>
  <path id="rv-class-c.png" class="cls-1" d="M362.459,2949.58q5.094,1.035,10.19,2.06,0.195,0.69.391,1.38h0.392v8.25l1.568,0.69v4.13a46.537,46.537,0,0,1-6.662.34q-0.392-1.545-.784-3.09c-0.261-.12-0.523-0.23-0.784-0.35v-0.68h-0.392c-0.261-.35-0.522-0.69-0.783-1.04-0.9-.56-2.005-0.64-2.744-1.37-1.045-.12-2.09-0.23-3.135-0.35-2.4.5-5.682,1.73-6.27,3.79a3.809,3.809,0,0,0-1.176,3.09h-62.7c0.02-2.56-1.269-3.59-2.744-4.81q-0.195-.345-0.392-0.69l-2.351-.69v-0.34c-1.218-.42-4.337-0.29-5.1.34a6.938,6.938,0,0,0-5.486,6.19c-4.743.05-13.121,0.11-14.5-2.4v-33.37a7.848,7.848,0,0,0,1.176-1.03h5.878c0.8-.62,3.252-0.34,4.7-0.34H283.3c0.262-.92.523-1.84,0.784-2.75q5.878,0.165,11.757.34v0.34h0.784c0.261,0.35.522,0.69,0.783,1.04H297.8c0.131,0.34.262,0.68,0.392,1.03h13.324c1.39-2.04,8.711-4.37,12.933-2.75v0.34c0.522,0.12,1.045.23,1.567,0.34v0.35c0.523,0.34,1.046.69,1.568,1.03l0.392,0.69h21.162c0.784,1.15,1.568,2.29,2.351,3.44,0.131,0.46.262,0.92,0.392,1.37h0.392v0.69h0.392v1.03h0.392v0.69h0.392c0.375,0.93-.311,1.93-0.392,2.41,0.261,0.11.523,0.23,0.784,0.34,0.13,0.35.261,0.69,0.392,1.03,0.522,0.35,1.045.69,1.567,1.04v0.68c0.261,0.12.523,0.23,0.784,0.35,0.131,0.34.261,0.69,0.392,1.03,0.522,0.34,1.045.69,1.568,1.03v0.69l1.175,0.69v0.69c0.261,0.11.523,0.22,0.784,0.34,0.131,0.34.261,0.69,0.392,1.03h0.392A3.727,3.727,0,0,1,362.459,2949.58Zm-65.837-19.26v-0.69a6.33,6.33,0,0,0-1.96-1.03c-1.258-1.02-7.2.1-9.013-.69v0.35h-0.392c-0.131.68-.262,1.37-0.392,2.06-6.387,1.18-15.849.69-23.514,0.69-1.279,2.19-.783,6.7-0.783,9.97v22.01c0.446,0.4.156,0.01,0.391,0.69,0.653,0.12,1.307.23,1.96,0.35v0.34c1.175,0.11,2.351.23,3.527,0.34v0.35h5.486c0.591-3.12,3.377-5.46,6.271-6.54h1.175v-0.34c1.545-.43,5.3.19,5.879,0.69a9.393,9.393,0,0,1,5.094,3.44c0.394,0.55.586,2.46,1.176,2.75H350.7a9.613,9.613,0,0,1,2.743-4.82h0.784c0.261-.34.522-0.69,0.783-1.03,0.677-.4.882-0.01,1.568-0.69,2.7-.14,5.931-0.73,8.23.35,0.13,0.23.261,0.46,0.392,0.68h0.783v0.35a3.524,3.524,0,0,0,1.568.69c0.5,1.7,2.052,2.26,2.351,4.47h3.527v-2.07c-0.522-.11-1.045-0.23-1.567-0.34-0.542-2.65-.4-6.44-0.392-9.63h-0.392v-0.34l-5.486-.69v-0.35h-1.96v-0.34h-0.392v0.34h-1.959c-6.675.04-14.784,0.62-20.771-.34q-0.195-.69-0.391-1.38H339.73v-7.56c0-1.16-.237-2.82.392-3.44,0.313-1.21.694-1.34,2.351-1.38,0.89-.7,7.139-0.37,9.013-0.34-0.53-2.37-2.512-3.84-3.135-6.19H327.189c-0.261-.35-0.522-0.69-0.784-1.03-0.522-.35-1.045-0.69-1.567-1.04-0.131-.22-0.261-0.45-0.392-0.68-0.784-.12-1.568-0.23-2.351-0.35v-0.34c-2.678-.74-8.128,1.64-9.406,2.41-0.261.34-.522,0.68-0.784,1.03H307.6A79.25,79.25,0,0,1,296.622,2930.32Zm-29.784,6.54c3.989-.03,8.785-0.2,12.148.34,0.131,0.34.262,0.69,0.392,1.03,1.027,0.99.29,8,0,9.29-0.392.11-.783,0.23-1.175,0.34-0.978.77-9.225,0.37-11.365,0.34a8.928,8.928,0,0,0-1.176-1.03v-9.28A7.737,7.737,0,0,0,266.838,2936.86Zm18.811,8.94q-0.2-.69-0.392-1.38h-0.392c-0.612-1.54.149-5.73,0.392-6.88,2.232-1.02,6.76-.71,10.189-0.68a4.767,4.767,0,0,0,1.176,1.37c0.046,1.59.543,5.28-.392,6.19a1.769,1.769,0,0,1-1.176,1.38v0.34h-8.622C285.986,2945.75,286.431,2946,285.649,2945.8Zm14.891-8.94h9.406a8.237,8.237,0,0,0,1.176,1.03v6.88c-0.447.39-.157,0-0.392,0.68-0.392.12-.784,0.23-1.176,0.35-0.665.55-7.558,0.55-8.23,0a1.261,1.261,0,0,1-1.175-.69h-0.392v-7.57A4.085,4.085,0,0,0,300.54,2936.86Zm-22.729,9.63v-7.92c-2.362-.76-6.755-0.36-9.8-0.34-1.1,1.86-.814,5.06-0.783,7.91,0.392,0.12.784,0.23,1.175,0.35C269.505,2947.37,276.426,2946.73,277.811,2946.49Zm9.013-2.07h7.838v-5.85c-1.778-.58-5.037-0.36-7.446-0.34C286.589,2939.71,286.805,2942.4,286.824,2944.42Zm22.338,0v-6.19h-7.446c-0.592,1.39-.411,3.92-0.392,5.85C303.2,2944.69,306.648,2944.44,309.162,2944.42Zm32.919-5.5c-1.127,2.68-.413,7.68-0.392,11,1.507,0.49,4.163.35,6.27,0.35H360.5v-0.35a12.415,12.415,0,0,1-1.176-1.37c-0.261-.12-0.522-0.23-0.783-0.35v-0.68l-1.176-.69v-0.69c-0.523-.34-1.045-0.69-1.568-1.03v-0.69l-1.175-.69v-0.68c-0.523-.35-1.046-0.69-1.568-1.04v-0.68l-1.176-.69v-0.69h-0.392c-0.261-.34-0.522-0.69-0.783-1.03h-8.622Zm-62.311,21.67c4.061-.12,7.889,1.19,8.622,3.78,1.066,0.92.828,3.3,0.784,5.16-0.776.61-.329,0.67-0.784,1.37H288v0.69c-0.261.12-.523,0.23-0.784,0.35-0.261.34-.522,0.68-0.784,1.03-1.764,1.08-4.355,1.06-7.446,1.03-1.311-1.27-3.3-1.02-3.918-3.1-1.725-1.29-1.056-4.41-.784-6.53,0.959-.54.24-0.39,0.784-1.03l1.959-1.38v-0.34h0.784v-0.35c0.653-.11,1.306-0.23,1.959-0.34v-0.34Zm74.852,1.72a3.712,3.712,0,0,0,1.567-.69v-0.35h1.176v-0.34h1.176v-0.34c2.6-.72,4.611.71,6.27,1.03,0.754,1.1,2.14,1.87,2.743,3.09,1.161,2.36-.012,5.8-1.176,7.23-0.8.98-2.618,1.16-3.527,2.06-2.311.02-4.453-.19-6.27-0.34-0.608-.85-0.45-0.22-1.176-0.69l-1.175-1.38h-0.392v-0.69h-0.392c-0.449-.68-0.071-0.83-0.784-1.37-0.033-1.66-.207-4,0.392-5.16h0.392v-0.69h0.392A2.828,2.828,0,0,0,354.622,2962.31Zm-75.244,0a4.851,4.851,0,0,1-1.175.68v0.35h-0.784c-0.564.39-.886,1.57-1.568,2.06-0.13.92-.261,1.84-0.392,2.75h0.392v1.38c1.319,0.77,1.273,1.97,3.135,2.41,0.742,0.68.2,0,1.176,0.34,1.933,0.67,2.932,0,4.7-.34,0.784-.81,1.567-1.61,2.351-2.41,0.16-2.19.547-3.83-.784-5.5-0.914-.58-1.829-1.15-2.743-1.72h-4.311Zm79.554,0v0.34h-1.175c-0.784,1.03-.385.16-1.176,0.69-1.67,1.1-1.982,2.85-1.959,5.5,0.783,0.59.33,0.8,0.783,1.38,0.915,0.68,1.829,1.37,2.744,2.06h3.919c0.606-.62,1.695-0.8,2.351-1.38s0.862-1.53,1.567-2.06c0.115-2.66-.438-4.99-2.743-5.5C362.344,2962.39,360.984,2962.28,358.932,2962.31Zm-77.986,1.72c2.7,0.11,4.9,1.88,3.919,4.12v1.03c-0.261.12-.523,0.23-0.784,0.35l-0.392.69c-1.182.65-3.108,0.23-4.311,0-0.837-1.35-1.509-1.6-1.567-3.79,0.653-.68,1.306-1.37,1.959-2.06h1.176v-0.34Zm76.419,0.68c0.522-.11,1.045-0.23,1.567-0.34v-0.34c1.266-.38,2.684.2,3.527,0.34,0.262,0.34.523,0.69,0.784,1.03h0.392v0.69h0.392a3.007,3.007,0,0,1-1.959,4.13c-1.249,1.15-2.744.3-4.311,0a4.4,4.4,0,0,0-.784-0.69v-0.69h-0.392v-3.09c0.261-.12.523-0.23,0.784-0.35v-0.69Zm-76.027.69v0.35h-1.176v0.34c-1.881,1.32-.111,3.17,2.351,3.09,0.621-.93,1.075-0.84,1.176-2.4H283.3c-0.13-.35-0.261-0.69-0.392-1.03H281.73v-0.35h-0.392Zm80.73,0.69a2.254,2.254,0,0,1-1.568-.69c-0.516.18,0.109,0.14-.392,0.35h-1.176v0.34c-0.689.51-.744,0.93-0.783,2.06,1.151,0.59,1.122,1,3.135,1.03a4.634,4.634,0,0,1,1.175-1.37C362.329,2967.24,362.2,2966.66,362.068,2966.09Z" transform="translate(-256.5 -2923.5)"/>
</svg>
