<svg xmlns="http://www.w3.org/2000/svg" width="115" height="55" viewBox="0 0 115 55">
  <metadata><?xpacket begin="﻿" id="W5M0MpCehiHzreSzNTczkc9d"?>
<x:xmpmeta xmlns:x="adobe:ns:meta/" x:xmptk="Adobe XMP Core 5.6-c138 79.159824, 2016/09/14-01:09:01        ">
   <rdf:RDF xmlns:rdf="http://www.w3.org/1999/02/22-rdf-syntax-ns#">
      <rdf:Description rdf:about=""/>
   </rdf:RDF>
</x:xmpmeta>
                                                                                                    
                                                                                                    
                                                                                                    
                                                                                                    
                                                                                                    
                                                                                                    
                                                                                                    
                                                                                                    
                                                                                                    
                                                                                                    
                                                                                                    
                                                                                                    
                                                                                                    
                                                                                                    
                                                                                                    
                                                                                                    
                                                                                                    
                                                                                                    
                                                                                                    
                                                                                                    
                           
<?xpacket end="w"?></metadata>
<defs>
    <style>
      .cls-1 {
        fill: #bd8cbf;
        stroke: #db37d5;
        stroke-width: 1.3px;
        fill-rule: evenodd;
      }
    </style>
  </defs>
  <path id="rv-fifth-wheel.png" class="cls-1" d="M299.23,3079.07c4.279-.02,9.448-0.26,13.116.34a4.841,4.841,0,0,1,1.125,1.66l19.487-.33c3.117,0,7.252-.29,9.743.33,2.056,0.51,5.3-.12,7.12.33h5.247v0.34h4.871v0.33h4.123v0.33h3.747c3.035,0.77,8.254.14,9.743,2.33h0.375c0.25,1.44.5,2.89,0.75,4.33h0.374v1.99h0.375c0.38,1.16.852,8.18,0.375,9.66a31.02,31.02,0,0,0-1.5,6.99c-0.5.33-1,.66-1.5,1-1.331,1.19-6.054.7-8.619,0.66v5.33h-5.621v-5.33c-4.746-.03-10.492-0.34-14.616.33-0.125.34-.249,0.67-0.374,1-0.559.57-.373,1.94-0.375,3a41.985,41.985,0,0,1-.375,6.99l-1.124.33c-0.931.72-7.1,0.33-8.994,0.33H311.972c-0.231-2.4-1.5-3.41-3-4.66l-0.375-.66h-0.75v-0.33c-0.765-.39-0.835-0.01-1.5-0.67-1.772-.08-4.085-0.63-5.246.33a7.439,7.439,0,0,0-5.621,5.99H292.86c-0.231-2.4-1.5-3.41-3-4.66l-0.375-.66h-0.75v-0.33c-0.765-.39-0.835-0.01-1.5-0.67l-3.372-.33v0.33h-1.874v0.33h-0.75v0.34h-0.749l-0.375.66h-0.749v0.33c-0.5.34-1,.67-1.5,1v0.67H277.5c-0.375.89-.75,1.77-1.124,2.66h-1.125c-1.412-1.07-3.33.47-4.871-1.33H270V3084.4a3.611,3.611,0,0,0,.749-0.67h0.75v-0.33h3v-0.33h0.749c0.125-.23.25-0.45,0.375-0.67h0.75v-0.33h0.749v-0.33c0.75-.23,1.5-0.45,2.249-0.67v-0.33a23.613,23.613,0,0,1,7.12-.34v0.34l1.874,0.33c0.124,0.22.249,0.44,0.374,0.67h0.75l0.375,0.66,8.244-.33A10.33,10.33,0,0,0,299.23,3079.07Zm1.5,1.67a8.81,8.81,0,0,1-.375,2.33,1.445,1.445,0,0,0-1.124.66q-3.747.165-7.5,0.34h-3c-0.249-.34-0.5-0.67-0.749-1-0.9-.52-4.488-1.54-6.371-1v0.33l-2.248.33v0.34l-1.5.33v0.33h-0.75v0.34l-1.124.33-0.375.66c-1.148.46-2.564-.3-3.373,0.34-0.839.85-.374,6.89-0.374,8.65v24.63a8.611,8.611,0,0,0,3,.33,10.991,10.991,0,0,1,6.37-5.65h1.5a8.616,8.616,0,0,1,3.748-.34v0.34l2.623,0.33v0.33h0.75c0.124,0.22.249,0.45,0.374,0.67h0.75c0.5,0.55,1,1.11,1.5,1.66l0.749,0.33v0.67h0.375a4.347,4.347,0,0,0,.75,1v-0.33c1.175-.69,1.576-2.34,2.623-3h0.749c0.125-.22.25-0.44,0.375-0.67h0.749v-0.33l1.5-.33v-0.33c3.063-1.08,7.932.19,9.744,1.33,0.5,0.55,1,1.11,1.5,1.66l0.749,0.33v0.67l0.75,0.33c0.25,0.67.5,1.33,0.749,2h31.1c0.975-2.34.395-6.71,0.375-9.65a1.8,1.8,0,0,0,.75-1.33c0.374-.11.749-0.23,1.124-0.34l0.375-.66c1.748-.11,3.5-0.22,5.246-0.34h11.617v5.66h1.5v-5.66h9.744q0.188-.33.374-0.66h0.375c0.25-1.67.5-3.33,0.75-4.99,1.715-5.28-.085-11.17-1.125-15.98a5.316,5.316,0,0,0-3-.67c-1.216-.93-4.846-0.19-6.745-0.66v-0.33h-4.122v-0.34h-4.122v-0.33h-4.5v-0.33h-5.622c-2.313-.58-6.251.25-8.619-0.34-1.218-.3-7.653-0.75-9.368-0.33v0.33H316.843v0.34c-2.01.49-4.538-.2-5.246-1v-0.67h-0.375v-0.33h-0.749v-0.33h-9.744Zm70.078,16.31c-4.715.74-11.142,0.33-16.489,0.33-0.25-.33-0.5-0.67-0.749-1-1-.87-0.75-2.91-0.75-4.66,0-2.31-.18-5.27,1.5-5.99h15.739a7.471,7.471,0,0,0,1.5,1.66v8.32h-0.374C371.057,3096.16,370.932,3096.6,370.807,3097.05Zm-1.5-1.34a43.685,43.685,0,0,0,.375-7.65c-3.038-1.4-9.907-.69-14.241-0.67-0.8,1.93-.394,5.5-0.374,7.99C357.828,3096.29,365.6,3095.73,369.308,3095.71Zm-91.064-6.65c3.514-.06,11.3-0.63,12.367,1.33v9.32c-0.427.38-.149,0-0.375,0.66-0.374.12-.749,0.23-1.124,0.34v0.33h-2.623c-1.762.01-7.4,0.35-8.245-.33a1.879,1.879,0,0,1-1.5-1h-0.374v-8.99c0.426-.38.149,0,0.374-0.66A5.079,5.079,0,0,0,278.244,3089.06Zm19.487,0a62.285,62.285,0,0,1,9.369.33c0.125,0.33.25,0.67,0.375,1,0.754,0.74.407,5.77,0.374,7.32a7.428,7.428,0,0,0-1.124,1h-9.368a7.422,7.422,0,0,0-1.125-1v-7.32c0.427-.38.15,0,0.375-0.67A2.741,2.741,0,0,0,297.731,3089.06Zm24.734,0.66c0.432,1.91,1.043,8.19-.75,8.99h-9.369a7.378,7.378,0,0,0-1.124-1v-7.32c0.427-.38.149,0,0.375-0.67l1.124-.33a33.546,33.546,0,0,1,8.245-.33v0.33Zm-33.728,9.66a45.766,45.766,0,0,0,.375-7.99c-2.283-1.06-7.04-.69-10.493-0.67-0.837,2.01-.394,5.74-0.375,8.32C280.785,3099.88,285.523,3099.39,288.737,3099.38Zm9.369-8.33v5.66c1.793,0.6,5.091.35,7.5,0.34v-0.34h0.375v-5.66A28.419,28.419,0,0,0,298.106,3091.05Zm14.99,0v5.66c1.792,0.6,5.091.35,7.5,0.34,0.566-1.35.393-3.79,0.375-5.66-1.8-.84-4.3-0.69-7.121-0.67C313.418,3091.1,313.844,3090.85,313.1,3091.05Zm-31.1,24.3h5.246v0.34c1.813,0.72,3.6,1.15,4.123,2.99,0.76,0.57,1.752,3.64,1.124,5.33a20.171,20.171,0,0,0-1.124,2.33c-0.625.44-1.25,0.88-1.874,1.33V3128h-0.75c-1.589.81-1.426,1-4.122,1h-2.623v-0.33c-3.113-.52-6.15-4.39-4.872-7.66v-1.33H277.5c0.125-.44.25-0.89,0.375-1.33l0.749-.33v-0.67l0.75-.33v-0.34h0.749l0.375-.66C281.17,3115.63,281.333,3116.02,281.992,3115.35Zm19.112,0h5.246v0.34c1.814,0.72,3.6,1.15,4.123,2.99,0.761,0.57,1.752,3.64,1.124,5.33a20.171,20.171,0,0,0-1.124,2.33c-0.625.44-1.25,0.88-1.874,1.33V3128h-0.75c-1.588.81-1.426,1-4.122,1H301.1v-0.33c-3.113-.52-6.15-4.39-4.872-7.66v-1.33h0.375c0.125-.44.25-0.89,0.375-1.33l0.749-.33v-0.67l0.75-.33v-0.34h0.749l0.375-.66C300.282,3115.63,300.445,3116.02,301.1,3115.35Zm-17.988,1.67v0.33h-1.124c-0.577.81-.454,0.21-1.124,0.67l-0.375.66h-0.375v0.67h-0.375a4.074,4.074,0,0,1-.749,1c-0.118,1.41-.648,2.72.375,3.66,0.674,2.61,3.308,3.41,7.12,3.33,1.14-1.13,2.835-1.18,3.373-3,0.747-.63.009-0.17,0.374-1,0.728-1.64,0-2.49-.374-3.99-1.053-.55-1.276-1.34-2.624-1.67C286.424,3116.94,284.812,3116.99,283.116,3117.02Zm19.112,0v0.33H301.1c-0.577.81-.454,0.21-1.124,0.67l-0.375.66H299.23v0.67h-0.375a4.074,4.074,0,0,1-.749,1c-0.068,1.37-.488,2.83.375,3.66,0.674,2.61,3.308,3.41,7.12,3.33,1.14-1.13,2.835-1.18,3.373-3,0.748-.63.009-0.17,0.374-1,0.728-1.64,0-2.49-.374-3.99-0.913-.46-1.239-1.28-1.874-1.67s-0.859.01-1.5-.66h-3.373Zm-18.737,1.66h2.623v0.33c3.121,0.61,3.28,4.74.75,6-0.71.65-1.891,0.68-3.373,0.66-0.932-.92-1.79-0.48-2.249-2-0.854-.79-0.21-2.77,0-3.66A8.312,8.312,0,0,0,283.491,3118.68Zm19.112,0h2.623v0.33a2.9,2.9,0,0,1,2.249,4v1l-0.75.33c-1.217,1.16-1.447,1.43-4.122,1.33-0.931-.92-1.79-0.48-2.249-2-0.854-.79-0.209-2.77,0-3.66A8.3,8.3,0,0,0,302.6,3118.68Zm-18.363,1.67c-0.644.71-.761,0.18-1.124,1.33-1,1.02.53,1.7,1.124,2.33,0.753-.19.325,0.04,0.75-0.34,1.422-.29,1.524-0.76,1.5-2.33A7.3,7.3,0,0,0,284.24,3120.35Zm19.112,0c-0.644.71-.761,0.18-1.124,1.33-1,1.02.53,1.7,1.124,2.33,0.754-.19.325,0.04,0.75-0.34,1.422-.29,1.524-0.76,1.5-2.33A7.3,7.3,0,0,0,303.352,3120.35Z" transform="translate(-267.5 -3076.5)"/>
</svg>
