<svg xmlns="http://www.w3.org/2000/svg" width="111.969" height="70" viewBox="0 0 111.969 70">
  <metadata><?xpacket begin="﻿" id="W5M0MpCehiHzreSzNTczkc9d"?>
<x:xmpmeta xmlns:x="adobe:ns:meta/" x:xmptk="Adobe XMP Core 5.6-c138 79.159824, 2016/09/14-01:09:01        ">
   <rdf:RDF xmlns:rdf="http://www.w3.org/1999/02/22-rdf-syntax-ns#">
      <rdf:Description rdf:about=""/>
   </rdf:RDF>
</x:xmpmeta>
                                                                                                    
                                                                                                    
                                                                                                    
                                                                                                    
                                                                                                    
                                                                                                    
                                                                                                    
                                                                                                    
                                                                                                    
                                                                                                    
                                                                                                    
                                                                                                    
                                                                                                    
                                                                                                    
                                                                                                    
                                                                                                    
                                                                                                    
                                                                                                    
                                                                                                    
                                                                                                    
                           
<?xpacket end="w"?></metadata>
<defs>
    <style>
      .cls-1 {
        fill: #db37d5;
        stroke: #db37d5;
        stroke-width: 0.5px;
        fill-rule: evenodd;
      }
    </style>
  </defs>
  <path id="rv-park-home.png" class="cls-1" d="M210.184,3084.78V3129h-4.962v-7.18h-51.9c-0.027,2.72-1.187,5.5-3.435,6.05-1.515,1.57-4.412.37-6.106,0-0.788-1.35-1.88-1.93-2.29-3.78h-0.382a4.318,4.318,0,0,1-3.053,3.78c-0.829.84-2.471,0.79-4.2,0.75v-0.38h-1.145l-0.381-.75h-0.763a8.7,8.7,0,0,1-1.909-3.03h-0.381c-0.267,2.77-1.926,2.99-4.2,3.78v0.38h-2.672c-1.072-.35-1.873-1.18-3.053-1.51-0.3-1.2-1.212-1.79-1.526-2.65v-2.64a57.008,57.008,0,0,1-9.541-.38,4.361,4.361,0,0,1-.763-1.51c-0.88-1-.382-8.49-0.382-10.58v-30.61l2.29-1.89h52.283c0.128-.25.255-0.51,0.382-0.76,0.509-.12,1.018-0.25,1.527-0.38v-0.37c0.381-.13.763-0.26,1.144-0.38,0.128-.25.255-0.51,0.382-0.76,0.509-.12,1.018-0.25,1.527-0.37,0.127-.26.254-0.51,0.381-0.76,0.509-.13,1.018-0.25,1.527-0.38v-0.38c0.381-.12.763-0.25,1.145-0.37,0.127-.26.254-0.51,0.381-0.76,0.509-.13,1.018-0.25,1.527-0.38l0.381-.75c0.509-.13,1.018-0.26,1.527-0.38,0.127-.25.254-0.51,0.382-0.76h0.763v-0.38h0.763l0.382-.75H176.6c0.127-.25.255-0.51,0.382-0.76,0.508-.12,1.017-0.25,1.526-0.37,0.127-.26.255-0.51,0.382-0.76,0.509-.13,1.018-0.25,1.526-0.38q0.192-.375.382-0.75c1.145-.71,2.356-0.73,4.2-0.76,0.831,1.17,1.516.79,2.671,1.51,0.128,0.25.255,0.51,0.382,0.76h0.763v0.38h0.764v0.37h0.763c0.127,0.25.254,0.51,0.381,0.76,0.509,0.12,1.018.25,1.527,0.38q0.19,0.375.382,0.75c0.763,0.25,1.526.51,2.289,0.76q0.192,0.375.382,0.75c0.763,0.26,1.527.51,2.29,0.76,0.127,0.25.254,0.5,0.381,0.76l2.29,0.75c0.127,0.25.255,0.51,0.382,0.76l2.29,0.75c0.127,0.25.254,0.51,0.381,0.76,0.509,0.12,1.018.25,1.527,0.38l0.381,0.75h0.764v0.38c0.508,0.13,1.017.25,1.526,0.38l0.382,0.75c0.763,0.26,1.526.51,2.29,0.76,0.127,0.25.254,0.5,0.381,0.76h0.764v0.37c1.374,0.77,1.3.16,2.289,1.52H214v2.64a5.166,5.166,0,0,0-1.527,1.13h-2.289Zm-53.429-3.02,0.382,1.14H211.71c0.127-.26.255-0.51,0.382-0.76-0.771-.4-1.557-1.1-2.29-1.51h-0.763c-0.127-.25-0.255-0.51-0.382-0.76l-2.29-.75c-0.127-.26-0.254-0.51-0.381-0.76-0.763-.25-1.527-0.5-2.29-0.76l-0.382-.75c-0.763-.25-1.526-0.51-2.29-0.76l-0.381-.75H199.88v-0.38h-0.764c-0.127-.25-0.254-0.51-0.381-0.76l-2.29-.75c-0.127-.25-0.255-0.51-0.382-0.76-0.509-.12-1.017-0.25-1.526-0.38v-0.37h-0.763c-0.128-.26-0.255-0.51-0.382-0.76h-0.763v-0.38h-0.764v-0.38H191.1q-0.191-.375-0.382-0.75h-0.763v-0.38h-0.763v-0.38h-0.763q-0.192-.375-0.382-0.75c-0.509-.13-1.018-0.26-1.527-0.38-0.127-.25-0.254-0.51-0.381-0.76-0.509-.12-1.018-0.25-1.527-0.37v-0.38c-0.508-.13-1.017-0.25-1.526-0.38v0.38q-2.862,1.5-5.725,3.02c-0.127.25-.254,0.5-0.381,0.76-0.509.12-1.018,0.25-1.527,0.37-0.127.26-.254,0.51-0.381,0.76-0.509.13-1.018,0.25-1.527,0.38q-0.191.375-.382,0.75H172.4v0.38h-0.763v0.38c-0.382.13-.763,0.25-1.145,0.38q-0.191.375-.382,0.75c-0.508.13-1.017,0.25-1.526,0.38-0.127.25-.255,0.5-0.382,0.76-0.509.12-1.018,0.25-1.526,0.37-0.128.26-.255,0.51-0.382,0.76h-0.763v0.38h-0.764l-0.381.75h-0.763c-0.128.26-.255,0.51-0.382,0.76-0.509.13-1.018,0.25-1.527,0.38C160.2,3079.69,158.785,3081.28,156.755,3081.76Zm17.174,38.17v-27.97a7.512,7.512,0,0,0,1.145-1.13h13.738c0.435,0.43,0,.15.764,0.38,0.127,0.38.254,0.75,0.381,1.13,0.972,1.1.382,5.32,0.382,7.18v20.41h3.435v-35.15H169.349c-4.608,0-10.137.34-14.12-.37l-0.382-1.14c-1.789-1.87,1.759-3.88,3.053-4.15v-0.38H120.882c-2.969,0-10.931-.63-11.831,1.13v39.3c3.146,1.6,14.218.76,19.082,0.76h45.8Zm21.753,0h11.449v7.18h1.145v-7.94H196.063v-25.32c0-1.91.448-8.13-.381-9.07v35.15Zm2.289-35.15v16.63h10.305v-16.63H197.971Zm-81.669.38h9.159a5.063,5.063,0,0,0,1.145,1.51,48.69,48.69,0,0,1-.381,8.32c-0.382.12-.764,0.25-1.145,0.38-0.867.77-6.952,0.41-8.778,0.37a9.494,9.494,0,0,0-1.145-1.13v-8.31A7.184,7.184,0,0,0,116.3,3085.16Zm14.5,0h9.159a8.051,8.051,0,0,0,1.145,1.14v8.31a7.812,7.812,0,0,0-1.145,1.13h-8.777c-0.435-.43,0-0.15-0.763-0.37q-0.192-.57-0.382-1.14c-0.617-.64-0.609-6.91,0-7.56A4.057,4.057,0,0,1,130.8,3085.16Zm-13.738,1.89v6.43c1.731,0.63,4.905.39,7.251,0.37,0.576-1.53.4-4.3,0.381-6.42h-0.381v-0.38h-7.251Zm22.134,0h-7.251c-0.576,1.53-.4,4.3-0.381,6.43,1.731,0.63,4.905.39,7.251,0.37C139.429,3092.23,139.219,3089.27,139.2,3087.05Zm32.439,4.16,0.381,1.89H172.4c0.69,2.17-.285,7.54-0.382,9.45a5.006,5.006,0,0,0-1.526,1.13H159.427a8.276,8.276,0,0,0-1.527-1.89c-0.057-2.38-.519-8.72.382-10.2,0.96-1.58,6.09-1.14,8.777-1.14h3.053v0.38C170.621,3090.96,171.13,3091.08,171.639,3091.21Zm-1.527,1.51a32.68,32.68,0,0,0-9.922,0c-0.748,2-.4,5.69-0.382,8.31,2.174,1.12,6.584.79,9.923,0.76C170.548,3099.61,170.132,3095.55,170.112,3092.72Zm5.725,27.21h12.594V3093.1c-2.973-1.09-8.523-.4-12.213-0.38-0.779,2.11-.381,5.95-0.381,8.69v18.52Zm22.134-16.63c0.651,0.6,9.647.6,10.305,0H197.971Zm0,2.27v3.02h10.305v-3.02H197.971Zm0,4.91v0.76h10.305v-0.76H197.971Zm0,2.65v4.15h10.305v-4.15H197.971Zm-78.234,8.69c-0.04,2.12.615,3.75,2.29,4.16,1.216,1.27,2.672.34,4.2,0,0.815-1.48,1.469-1.76,1.526-4.16h-0.763a6.856,6.856,0,0,1-.763,3.02c-1.621.79-3.793,1.43-4.962-.38a2.554,2.554,0,0,1-.381-2.64h-1.145Zm3.053,0v1.51a4.035,4.035,0,0,0,1.527.38v-0.38H124.7v-1.51H122.79Zm8.778,0a12.763,12.763,0,0,0,.381,3.02c1.433,0.82,1.9,1.77,4.2,1.89v-0.38h1.145v-0.37c0.382-.13.763-0.26,1.145-0.38,0.352-1.44,1.035-1.87,1.145-3.78h-1.145a12.758,12.758,0,0,1-.382,3.02,8.875,8.875,0,0,1-4.2.76,8.245,8.245,0,0,0-1.526-1.89v-1.89h-0.763Zm3.053,0c-0.128.38-.255,0.76-0.382,1.13h0.382c0.479,0.72.386,0.63,1.526,0.76a3.993,3.993,0,0,0,.382-1.51A4.776,4.776,0,0,0,134.621,3121.82Zm8.777,0v0.75h-0.382c0.255,0.76.509,1.52,0.764,2.27,1.462,0.85,1.773,1.78,4.2,1.89v-0.38h1.145c0.636-.75,1.272-1.51,1.908-2.26v-2.27h-0.764v2.27c-1.978,1.17-1.018,1.54-4.579,1.51-0.832-1.38-1.515-1.32-1.527-3.78H143.4Zm4.58,1.89c0.127-.51.254-1.01,0.381-1.51a4.772,4.772,0,0,0-1.908-.38,3.976,3.976,0,0,0-.381,1.51A4.952,4.952,0,0,0,147.978,3123.71Z" transform="translate(-104.531 -3061.5)"/>
</svg>
