<svg xmlns="http://www.w3.org/2000/svg" width="110" height="46" viewBox="0 0 110 46">
  <metadata><?xpacket begin="﻿" id="W5M0MpCehiHzreSzNTczkc9d"?>
<x:xmpmeta xmlns:x="adobe:ns:meta/" x:xmptk="Adobe XMP Core 5.6-c138 79.159824, 2016/09/14-01:09:01        ">
   <rdf:RDF xmlns:rdf="http://www.w3.org/1999/02/22-rdf-syntax-ns#">
      <rdf:Description rdf:about=""/>
   </rdf:RDF>
</x:xmpmeta>
                                                                                                    
                                                                                                    
                                                                                                    
                                                                                                    
                                                                                                    
                                                                                                    
                                                                                                    
                                                                                                    
                                                                                                    
                                                                                                    
                                                                                                    
                                                                                                    
                                                                                                    
                                                                                                    
                                                                                                    
                                                                                                    
                                                                                                    
                                                                                                    
                                                                                                    
                                                                                                    
                           
<?xpacket end="w"?></metadata>
<defs>
    <style>
      .cls-1 {
        fill: #bd8cbf;
        stroke: #db37d5;
        stroke-width: 1.3px;
        fill-rule: evenodd;
      }
    </style>
  </defs>
  <path id="rv-travel-trailer.png" class="cls-1" d="M516.442,3109.58c2.244-.06,4.483-0.2,5.352.79,1.351,1.01.752,4.75,0.713,6.66H530v3.46H514.3a5.662,5.662,0,0,1-1.428,1.59H476.48c0.043,2.18-.256,3.56-1.427,4.79-0.357.18-.714,0.36-1.071,0.53-0.238.27-.476,0.54-0.713,0.8h-0.714v0.27c-0.729.31-.8,0-1.427,0.53-2.2.01-4.325-.14-6.066-0.27-0.555-.65-0.406-0.16-1.07-0.53-0.476-.44-0.952-0.89-1.428-1.33-0.237-.09-0.475-0.18-0.713-0.26v-0.54h-0.357c-0.409-.53-0.065-0.64-0.714-1.06-0.07-3.59.079-4.34,2.5-6.12,0.238-.27.476-0.53,0.714-0.8h0.713v-0.27c0.729-.3.8,0,1.428-0.53,3.307-.05,5.637.09,7.492,1.07v0.26c0.476,0.27.952,0.54,1.428,0.8-3.371-4.55-14.061-2.59-14.629,2.66h-3.212c0.1,0.8.5,1.94,0,2.93h-0.356c-0.119.35-.238,0.71-0.357,1.06h-0.357v0.54c-0.476.26-.951,0.53-1.427,0.79-0.238.27-.476,0.54-0.714,0.8h-0.713v0.27c-0.729.31-.8,0-1.428,0.53h-5v-0.27h-0.713v-0.26l-1.428-.27c-0.237-.26-0.475-0.53-0.713-0.8-0.357-.17-0.714-0.35-1.071-0.53-0.719-.76-2.177-3.34-1.427-5.05h0.357v-0.8h0.357v-0.8l0.713-.27v-0.53c0.6-.35,1.19-0.71,1.784-1.06v-0.27h0.714v-0.27c0.731-.3.793,0,1.427-0.53,3.454-.05,4.561.04,6.779,0.8-0.84-1.03-5.619-1.88-7.136-.8a7.045,7.045,0,0,0-5.352,4.79c-5.076.02-11.227,0.34-15.7-.26-0.741-3.11-.357-7.37-0.357-10.91v-19.43c0.357-.09.714-0.17,1.071-0.26,0.608-.4,2.071-0.27,3.211-0.27h42.459v-0.26H472.2c-0.039-1.05.027-1.91,0.714-2.4,0.644-.43,2.371-0.26,3.568-0.27h9.277c0.406,0.31,0,.11.713,0.27,0.595,0.89,1.19,1.77,1.784,2.66h19.267c0.595,0.53,1.19,1.07,1.784,1.6l0.357,1.86h0.357c0.119,0.53.238,1.06,0.357,1.6h0.357v0.79h0.356v0.8h0.357v0.8H511.8v0.8h0.357v0.8h0.357q0.178,0.8.356,1.59h0.357v1.07C514.271,3104.8,515.766,3107.21,516.442,3109.58Zm-42.46-17.3H427.241c-0.957,1.96-.357,6.27-0.357,8.78v19.43c2.725,0.74,8.983.27,12.488,0.26l0.714-1.59,0.714-.27c1.962-2.16,3.658-3.47,8.563-3.46h2.5v0.27h1.071v0.26l1.427,0.27v0.26h0.714v0.27a4.534,4.534,0,0,0,1.784.8v0.53a2.674,2.674,0,0,1,1.784,1.86H459v-0.26c0.726-.46.3-0.6,0.714-1.07h0.357a1.966,1.966,0,0,0,.713-1.06,4.52,4.52,0,0,0,1.784-.8v-0.27c1.071-.26,2.141-0.53,3.212-0.79v-0.27h2.5c4.98,0,9.166,2.37,9.991,5.32h33.182a4.545,4.545,0,0,0,1.071-1.59h15.7v-0.54H520.01v-7.45h-5.352c-0.175-1.69-1.419-3.42-2.141-4.79l-0.357-1.86H511.8v-0.53h-0.357v-1.07h-0.357v-0.79h-0.356v-0.8h-0.357v-0.8h-0.357v-0.8h-0.357l-0.357-1.59h-0.356v-1.34h-0.357v-0.79h-0.357v-0.8h-0.357v-0.8h-0.357v-0.8h-0.356c-0.119-.26-0.238-0.53-0.357-0.8h-0.357c-0.119-.17-0.238-0.35-0.357-0.53H486.827c-0.714-.97-1.427-1.95-2.141-2.93H474.7a3.968,3.968,0,0,0-.357,1.87h-0.357v1.06Zm-41.032,2.13h9.277c1.2,0,2.923-.16,3.568.27,1.527,0.25,2.155.94,2.141,2.39,0.539,0.45.355,1.55,0.356,2.4q-0.178,2.925-.356,5.85c-0.714.44-1.428,0.89-2.141,1.33H432.95v-0.27c-0.476-.09-0.952-0.17-1.427-0.26-0.119-.27-0.238-0.53-0.357-0.8h-0.357v-0.53h-0.357v-8.52h0.357c0.119-.35.238-0.71,0.357-1.06A5.329,5.329,0,0,0,432.95,3094.41Zm32.112,0.53a17.7,17.7,0,0,1,0,7.19c-0.357.08-.714,0.17-1.07,0.26-1.023.7-8.294,0.2-9.634,0a3.632,3.632,0,0,0-.714-0.53v-0.53h-0.356c-0.512-1.03.156-5.33,0.356-6.12a4.144,4.144,0,0,0,.714-0.53h0.714v-0.27h8.92c0.119,0.18.238,0.36,0.356,0.53h0.714Zm24.619-.53h11.061c1.26,0,3.237-.19,3.925.27,1.329,0.22,1.743.65,1.784,1.86,1.012,0.83.16,5.84,0,6.92-0.476.26-.951,0.53-1.427,0.8v0.26H488.968a6.791,6.791,0,0,0-1.071-.8v-8.25c0.407-.3.143,0,0.357-0.53h0.357v-0.26h1.07v-0.27Zm-56.374,1.6c-1.166,1.93-.944,6.44-0.357,8.78,2.724,0.75,8.983.28,12.488,0.26,0.954-1.92.375-6.29,0.357-8.78C443.07,3095.52,436.812,3095.99,433.307,3096.01Zm29.971,5.05v-5.05h-7.493c-0.571,1.14-.374,3.22-0.357,4.79C457.312,3101.32,460.8,3101.08,463.278,3101.06Zm26.76-5.05c-0.8,1.6-.375,4.58-0.357,6.65,2.761,1.06,10.178.55,14.272,0.53,0.83-1.67.376-4.78,0.357-6.92C501.573,3095.52,493.71,3095.99,490.038,3096.01ZM454,3118.09c0.6,0.53,1.19,1.07,1.784,1.6h0.357A5.245,5.245,0,0,0,454,3118.09Zm-5.709.53v0.27l-1.784.27v0.26c-0.594.36-1.189,0.71-1.784,1.07v0.53c-0.237.09-.475,0.17-0.713,0.26v1.07h-0.357c-0.45.56,0.5,2.5,0.714,2.66v0.53h0.356c0.6,0.53,1.19,1.07,1.784,1.6h0.714c1.593,1.25,4.108.02,5.709-.27,0.238-.26.476-0.53,0.713-0.8H454v-0.53l0.714-.27c0.791-1.13.156-3.09,0-4.25-0.783-.39-0.522-0.66-1.071-1.07A9.168,9.168,0,0,0,448.292,3118.62Zm16.056,1.33c-0.285.85-1.133,1.26-1.427,1.87v2.66c0.7,0.47.3,0.59,0.714,1.06l0.713,0.27v0.53c0.475,0.45,3.791,1.7,5.353,1.33v-0.27c0.594-.09,1.189-0.17,1.783-0.26v-0.27a3.532,3.532,0,0,1,1.428-.53c0.292-.82,1.11-1.38,1.427-2.13,0.574-1.35-.467-2.55-0.714-3.46l-2.854-1.86c-1.615-.08-2.791-0.5-4.282,0v0.27h-0.713v0.26A3.387,3.387,0,0,1,464.348,3119.95Zm10.7-.26a4.729,4.729,0,0,1,.713,1.33h0.357A1.635,1.635,0,0,0,475.053,3119.69Zm-27.117.53h2.854v0.27c1.428,0.27,1.563,1.01,2.5,1.59,0.081,3.13-.769,2.46-2.5,3.99a25.83,25.83,0,0,1-3.925-.26,2.894,2.894,0,0,1-.713-1.07c-0.713-.5-0.01-0.13-0.357-0.8-0.644-1.22.007-1.76,0.357-2.92A5.329,5.329,0,0,0,447.936,3120.22Zm17.84,5.32c-0.119-.27-0.238-0.53-0.357-0.8h-0.357v-0.53h-0.357c0.119-.89.238-1.77,0.357-2.66,0.714-.44,1.427-0.89,2.141-1.33l3.568,0.27c1.02,1.31,1.758,1.21,1.784,3.45H472.2v0.8c-0.713.45-1.427,0.89-2.141,1.33A16.9,16.9,0,0,1,465.776,3125.54Zm-8.92-4.52v0.53h0.356v-0.53h-0.356Zm19.267,0.26v0.54h0.357C476.275,3121.28,476.523,3121.59,476.123,3121.28Zm-27.831.54a2.794,2.794,0,0,0-.713,2.12,5,5,0,0,1,1.427.8h0.357v-0.26h1.07v-0.27a1.18,1.18,0,0,0,0-2.13v-0.26h-2.141Zm19.268,0c-0.677,1-1.362,2.24.713,2.66v0.26c0.5,0.06-.1-0.1.357-0.26,1.183-.23,1.035-0.61,1.784-1.07-0.2-.53.043-0.23-0.357-0.53a2.586,2.586,0,0,0-.713-1.06H467.56Z" transform="translate(-422.5 -3085.5)"/>
</svg>
